<?xml version="1.0" encoding="UTF-8"?>
<svg width="552px" height="157px" viewBox="0 0 552 157" version="1.1" xmlns="http://www.w3.org/2000/svg" xmlns:xlink="http://www.w3.org/1999/xlink">
    <title>Textboard</title>
    <g id="Textboard" stroke="none" stroke-width="1" fill="none" fill-rule="evenodd">
        <g id="SAKHIB" transform="translate(8.7925, 23.7637)" fill="#000000" fill-rule="nonzero">
            <path d="M42.9111328,110.07959 C69.7490234,110.07959 85.8222656,97.1030273 85.8222656,76.6796875 L85.8222656,76.605957 C85.8222656,59.8691406 75.7949219,50.800293 53.5283203,46.3764648 L42.2475586,44.0908203 C30.0083008,41.6577148 24.5522461,37.75 24.5522461,31.0405273 L24.5522461,30.9667969 C24.5522461,23.3725586 31.4091797,18.1376953 42.8374023,18.0639648 C53.8232422,18.0639648 61.4912109,23.1513672 62.597168,31.4829102 L62.6708984,32.3676758 L83.684082,32.3676758 L83.6103516,30.9667969 C82.578125,12.3129883 67.4633789,0 42.8374023,0 C19.2436523,0 2.28564453,12.8291016 2.28564453,32.2939453 L2.28564453,32.3676758 C2.28564453,48.3671875 12.902832,58.3945312 33.9160156,62.597168 L45.1230469,64.809082 C58.3208008,67.5371094 63.5556641,71.1499023 63.5556641,78.3754883 L63.5556641,78.4492188 C63.5556641,86.5595703 55.8139648,91.9418945 43.5009766,91.9418945 C31.3354492,91.9418945 22.5615234,86.7807617 21.1606445,78.5229492 L21.0131836,77.7119141 L0,77.7119141 L0.0737304688,78.8916016 C1.32714844,98.5039062 17.621582,110.07959 42.9111328,110.07959 Z" id="Path"></path>
            <path d="M90.3935547,108.236328 L113.766113,108.236328 L121.802734,82.4306641 L159.405273,82.4306641 L167.441895,108.236328 L190.814453,108.236328 L153.728027,1.84326172 L127.553711,1.84326172 L90.3935547,108.236328 Z M140.382812,22.487793 L140.825195,22.487793 L154.244141,65.7675781 L126.963867,65.7675781 L140.382812,22.487793 Z" id="Shape"></path>
            <polygon id="Path" points="201.726562 108.236328 223.993164 108.236328 223.993164 75.6474609 233.946777 63.3344727 264.397461 108.236328 291.01416 108.236328 250.16748 48.8095703 288.286133 1.84326172 263.512695 1.84326172 224.509277 50.5053711 223.993164 50.5053711 223.993164 1.84326172 201.726562 1.84326172"></polygon>
            <polygon id="Path" points="300.37793 108.236328 322.644531 108.236328 322.644531 63.4082031 370.569336 63.4082031 370.569336 108.236328 392.835938 108.236328 392.835938 1.84326172 370.569336 1.84326172 370.569336 45.0493164 322.644531 45.0493164 322.644531 1.84326172 300.37793 1.84326172"></polygon>
            <polygon id="Path" points="410.53125 108.236328 432.797852 108.236328 432.797852 1.84326172 410.53125 1.84326172"></polygon>
            <path d="M450.493164,108.236328 L497.606934,108.236328 C520.315918,108.236328 534.398438,96.5869141 534.398438,77.9331055 L534.398438,77.7856445 C534.398438,63.8505859 523.70752,53.3808594 508.887695,52.2749023 L508.887695,51.8325195 C520.61084,50.2841797 529.458496,40.3305664 529.458496,28.6811523 L529.458496,28.5336914 C529.458496,12.1655273 516.850586,1.84326172 496.795898,1.84326172 L450.493164,1.84326172 L450.493164,108.236328 Z M491.044922,18.3588867 C501.440918,18.3588867 507.560547,23.2250977 507.560547,31.7041016 L507.560547,31.8515625 C507.560547,41.0678711 500.851074,46.3027344 488.316895,46.3027344 L472.759766,46.3027344 L472.759766,18.3588867 L491.044922,18.3588867 Z M490.971191,61.4174805 C504.611328,61.4174805 511.689453,66.6523438 511.689453,76.3847656 L511.689453,76.5322266 C511.689453,86.4121094 504.685059,91.6469727 491.929688,91.6469727 L472.759766,91.6469727 L472.759766,61.4174805 L490.971191,61.4174805 Z" id="Shape"></path>
        </g>
    </g>
</svg>