<svg viewBox="0 0 552 157" xmlns="http://www.w3.org/2000/svg">
    <g stroke="none" stroke-width="11" fill="none" fill-rule="evenodd">
        <g transform="translate(0.720000, 0.040000)" fill="#000" fill-rule="nonzero">
            <path d="M12.6,156.96 L38.88,156.96 L64.8,131.4 L103.68,131.4 L129.6,104.4 L129.6,0 L103.68,0 L90.72,12.24 L52.92,12.24 L52.92,0.72 L26.64,0.72 L26.64,1.8 L48.96,1.8 L38.232,13.68 L90.72,13.68 L103.68,1.44 L127.44,1.44 L103.68,25.2 L64.8,26.64 L64.08,26.64 L38.16,51.84 L15.12,51.84 L39.528,26.64 L2.16,25.2 L25.2,1.44 L25.2,0.72 L0,25.92 L0,131.4 L12.6,131.4 L12.6,156.96 Z M14.4,54 L38.16,54 L38.16,155.52 L14.4,155.52 L14.4,54 Z M40.32,52.56 L64.08,28.8 L64.08,129.6 L40.32,153.36 L40.32,52.56 Z M1.44,27.36 L7.2,27.36 L12.96,27.36 C13.536,27.36 14.424,27.384 15.624,27.432 C16.824,27.48 18.18,27.528 19.692,27.576 C21.204,27.624 22.8,27.672 24.48,27.72 C26.16,27.768 27.756,27.816 29.268,27.864 C30.78,27.912 32.136,27.948 33.336,27.972 C34.536,27.996 35.424,28.032 36,28.08 L12.6,51.84 L12.6,129.6 L1.44,129.6 L1.44,27.36 Z M66.24,28.08 C68.736,27.984 71.496,27.888 74.52,27.792 C77.544,27.696 80.64,27.612 83.808,27.54 C86.976,27.468 90.144,27.408 93.312,27.36 C96.48,27.312 99.456,27.288 102.24,27.288 L102.24,129.6 L66.24,129.6 L66.24,28.08 Z M104.4,26.64 L128.16,2.88 L128.16,104.4 L104.4,128.16 L104.4,26.64 Z M51.12,2.16 L51.12,12.24 L41.04,12.24 L51.12,2.16 Z"/>
            <path d="M131.04,156.96 L235.44,156.96 L287.28,105.12 L287.28,0.72 L261.36,0.72 L222.48,38.88 L209.88,38.88 L209.88,0.72 L183.6,0.72 L131.04,53.28 L131.04,156.96 Z M132.48,54 L234,54 L234,155.52 L132.48,155.52 L132.48,54 Z M236.16,53.28 L285.84,3.6 L285.84,105.12 L236.16,154.8 L236.16,53.28 Z M183.6,2.16 L207.36,2.16 L169.92,40.32 L222.48,40.32 L261.36,2.16 L285.12,2.16 L235.44,51.84 L133.92,51.84 L183.6,2.16 Z M208.08,3.6 L208.08,38.88 L172.8,38.88 L208.08,3.6 Z"/>
            <path d="M288.72,52.56 L288.72,156.96 L327.6,156.96 L340.56,144.72 L352.44,144.72 L352.44,156.96 L392.4,156.96 L405.72,143.64 L405.72,131.4 L418.32,131.4 L444.24,105.12 L444.24,0.72 L340.56,0.72 L288.72,52.56 Z M290.16,54 L326.16,54 L326.16,155.52 L290.16,155.52 L290.16,54 Z M354.24,54 L390.96,54 L390.96,155.52 L354.24,155.52 L354.24,54 Z M328.32,53.28 L339.12,42.48 L339.12,144 L328.32,154.8 L328.32,53.28 Z M393.12,53.28 L403.92,42.48 L403.92,144 L393.12,154.8 L393.12,53.28 Z M341.28,41.04 L364.32,41.04 L352.44,53.28 L352.44,142.56 L341.28,142.56 L341.28,41.04 Z M405.72,39.6 L394.56,28.08 L416.88,28.08 L416.88,129.6 L405.72,129.6 L405.72,39.6 Z M419.04,27.36 L442.8,3.6 L442.8,105.12 L419.04,128.88 L419.04,27.36 Z M340.56,2.16 L442.08,2.16 L418.32,26.28 L392.4,26.28 L392.4,28.08 L403.92,40.32 L392.4,51.84 L355.68,51.84 L365.76,41.04 L365.76,39.6 L340.56,39.6 L327.6,51.84 L290.88,51.84 L340.56,2.16 Z M359.928,18.36 C359.928,18.408 359.94,18.48 359.964,18.576 C359.988,18.672 360,18.72 360,18.72 C360.096,18.816 360.216,18.96 360.36,19.152 C360.504,19.344 360.624,19.44 360.72,19.44 L387.36,19.44 L391.68,15.12 L391.68,13.68 L365.04,13.68 C364.944,13.68 364.704,13.776 364.32,13.968 C363.936,14.16 363.696,14.304 363.6,14.4 C363.456,14.544 363.216,14.784 362.88,15.12 C362.544,15.456 362.184,15.816 361.8,16.2 C361.416,16.584 361.056,16.944 360.72,17.28 C360.384,17.616 360.144,17.856 360,18 C360,18.048 359.988,18.108 359.964,18.18 C359.94,18.252 359.928,18.312 359.928,18.36 Z M364.32,15.84 L364.32,18 L362.16,18 L364.32,15.84 Z M366.48,15.12 L390.24,15.12 L387.36,18 L366.48,18 L366.48,15.12 Z"/>
            <path d="M445.68,156.96 L499.68,156.96 L530.28,126.72 L530.28,118.44 L537.12,118.44 L550.08,105.12 L550.08,0.72 L498.24,0.72 L484.2,14.4 L484.2,20.52 L477.36,20.52 L445.68,52.56 L445.68,156.96 Z M447.12,54 L496.8,54 L496.8,155.52 L447.12,155.52 L447.12,54 Z M498.96,53.28 L528.48,23.76 L528.48,126 L498.96,155.52 L498.96,53.28 Z M530.28,22.32 L529.2,20.52 L486,20.52 L486,15.12 L535.68,15.12 L535.68,116.64 L530.28,116.64 L530.28,22.32 Z M537.84,14.4 L548.64,3.6 L548.64,105.12 L537.84,115.92 L537.84,14.4 Z M478.08,22.32 L527.76,22.32 L498.24,51.84 L448.56,51.84 L478.08,22.32 Z M498.24,2.16 L547.92,2.16 L537.12,12.96 L487.44,12.96 L498.24,2.16 Z"/>
        </g>
    </g>
</svg>